<svg width="104" height="46" viewBox="0 0 104 46" fill="none" xmlns="http://www.w3.org/2000/svg">
<g filter="url(#filter0_d_3_1228)">
<path d="M4 41.049V4.4997H18.4199C21.1801 4.4997 23.5358 4.99345 25.487 5.98095C27.4501 6.95655 28.9433 8.34261 29.9664 10.1391C31.0015 11.9238 31.5191 14.0237 31.5191 16.4389C31.5191 18.866 30.9956 20.954 29.9486 22.703C28.9016 24.44 27.3847 25.7726 25.3978 26.7006C23.4228 27.6286 21.0314 28.0926 18.2235 28.0926H8.56867V21.882H16.9743C18.4496 21.882 19.675 21.6798 20.6506 21.2753C21.6262 20.8708 22.352 20.264 22.8279 19.4549C23.3157 18.6459 23.5596 17.6406 23.5596 16.4389C23.5596 15.2254 23.3157 14.2022 22.8279 13.3693C22.352 12.5365 21.6203 11.9059 20.6328 11.4776C19.6572 11.0374 18.4258 10.8173 16.9386 10.8173H11.7275V41.049H4ZM23.7381 24.4162L32.8219 41.049H24.2913L15.4038 24.4162H23.7381Z" fill="#1A1A1A"/>
<path d="M36.9801 41.049V4.4997H61.608V10.8708H44.7075V19.5799H60.3409V25.951H44.7075V34.6779H61.6794V41.049H36.9801Z" fill="#1A1A1A"/>
<path d="M100 17.2955H92.1833C92.0405 16.2842 91.749 15.386 91.3088 14.6007C90.8686 13.8036 90.3035 13.1254 89.6134 12.5663C88.9234 12.0071 88.1262 11.5788 87.222 11.2813C86.3297 10.9839 85.36 10.8352 84.3131 10.8352C82.4213 10.8352 80.7735 11.3051 79.3696 12.245C77.9657 13.173 76.8771 14.5294 76.1037 16.314C75.3304 18.0867 74.9437 20.2402 74.9437 22.7744C74.9437 25.3799 75.3304 27.5691 76.1037 29.3418C76.889 31.1146 77.9836 32.453 79.3875 33.3573C80.7914 34.2615 82.4154 34.7136 84.2595 34.7136C85.2946 34.7136 86.2524 34.5768 87.1328 34.3031C88.0251 34.0295 88.8163 33.6309 89.5063 33.1074C90.1964 32.572 90.7675 31.9236 91.2196 31.1622C91.6836 30.4007 92.0048 29.5322 92.1833 28.5566L100 28.5923C99.7977 30.2698 99.2921 31.8879 98.4831 33.4465C97.6859 34.9932 96.6092 36.3792 95.2529 37.6047C93.9084 38.8182 92.3023 39.7819 90.4344 40.4958C88.5783 41.1978 86.4784 41.5487 84.1346 41.5487C80.8747 41.5487 77.9598 40.8111 75.3899 39.3358C72.8319 37.8605 70.8093 35.7249 69.3221 32.9289C67.8468 30.133 67.1092 26.7482 67.1092 22.7744C67.1092 18.7887 67.8587 15.3979 69.3578 12.6019C70.8569 9.80601 72.8914 7.67635 75.4613 6.21295C78.0311 4.73765 80.9222 4 84.1346 4C86.2524 4 88.2155 4.29744 90.0239 4.89232C91.8442 5.4872 93.4563 6.35572 94.8603 7.49788C96.2642 8.62815 97.4063 10.0142 98.2868 11.6561C99.1791 13.298 99.7502 15.1778 100 17.2955Z" fill="#1A1A1A"/>
</g>
<defs>
<filter id="filter0_d_3_1228" x="0" y="0" width="104" height="45.5488" filterUnits="userSpaceOnUse" color-interpolation-filters="sRGB">
<feFlood flood-opacity="0" result="BackgroundImageFix"/>
<feColorMatrix in="SourceAlpha" type="matrix" values="0 0 0 0 0 0 0 0 0 0 0 0 0 0 0 0 0 0 127 0" result="hardAlpha"/>
<feOffset/>
<feGaussianBlur stdDeviation="2"/>
<feComposite in2="hardAlpha" operator="out"/>
<feColorMatrix type="matrix" values="0 0 0 0 0.886275 0 0 0 0 1 0 0 0 0 0.894118 0 0 0 0.25 0"/>
<feBlend mode="normal" in2="BackgroundImageFix" result="effect1_dropShadow_3_1228"/>
<feBlend mode="normal" in="SourceGraphic" in2="effect1_dropShadow_3_1228" result="shape"/>
</filter>
</defs>
</svg>
