<svg width="16" height="9" viewBox="0 0 16 9" fill="none" xmlns="http://www.w3.org/2000/svg">
<g filter="url(#filter0_i_0_6)">
<path d="M3.55969 3.66395C2.9579 4.05888 2.9579 4.94112 3.55969 5.33605L7.5942 7.98369C8.25921 8.4201 9.14286 7.94306 9.14286 7.14765V1.85235C9.14286 1.05694 8.25921 0.579895 7.5942 1.01631L3.55969 3.66395Z" fill="#898989"/>
<path d="M10.4168 3.66395C9.81504 4.05888 9.81504 4.94112 10.4168 5.33605L14.4513 7.98369C15.1164 8.4201 16 7.94306 16 7.14765L16 1.85235C16 1.05694 15.1163 0.579895 14.4513 1.01631L10.4168 3.66395Z" fill="#898989"/>
<path d="M2.28571 1C2.28571 0.447715 1.838 0 1.28571 0H1C0.447715 0 0 0.447715 0 1V8C0 8.55228 0.447715 9 0.999999 9H1.28571C1.838 9 2.28571 8.55228 2.28571 8V1Z" fill="#898989"/>
</g>
<defs>
<filter id="filter0_i_0_6" x="0" y="0" width="16.5" height="9.5" filterUnits="userSpaceOnUse" color-interpolation-filters="sRGB">
<feFlood flood-opacity="0" result="BackgroundImageFix"/>
<feBlend mode="normal" in="SourceGraphic" in2="BackgroundImageFix" result="shape"/>
<feColorMatrix in="SourceAlpha" type="matrix" values="0 0 0 0 0 0 0 0 0 0 0 0 0 0 0 0 0 0 127 0" result="hardAlpha"/>
<feOffset dx="0.5" dy="0.5"/>
<feGaussianBlur stdDeviation="0.5"/>
<feComposite in2="hardAlpha" operator="arithmetic" k2="-1" k3="1"/>
<feColorMatrix type="matrix" values="0 0 0 0 0.101961 0 0 0 0 0.101961 0 0 0 0 0.101961 0 0 0 0.05 0"/>
<feBlend mode="normal" in2="shape" result="effect1_innerShadow_0_6"/>
</filter>
</defs>
</svg>
