<svg width="32" height="32" viewBox="0 0 32 32" fill="none" xmlns="http://www.w3.org/2000/svg">
<path d="M19 9.5C19 11.433 20.567 13 22.5 13C24.433 13 26 11.433 26 9.5C26 7.567 24.433 6 22.5 6C20.567 6 19 7.567 19 9.5Z" stroke="black" stroke-width="4" stroke-linecap="round" stroke-linejoin="round"/>
<path d="M6 9.5C6 11.433 7.567 13 9.5 13C11.433 13 13 11.433 13 9.5C13 7.567 11.433 6 9.5 6C7.567 6 6 7.567 6 9.5Z" stroke="black" stroke-width="4" stroke-linecap="round" stroke-linejoin="round"/>
<path d="M10 6H22" stroke="black" stroke-width="4" stroke-linecap="round" stroke-linejoin="round"/>
<path d="M6 19H26" stroke="black" stroke-width="4" stroke-linecap="round" stroke-linejoin="round"/>
<path d="M6 25H26" stroke="black" stroke-width="4" stroke-linecap="round" stroke-linejoin="round"/>
</svg>
